<mxfile host="app.diagrams.net" agent="Mozilla/5.0 (X11; Linux x86_64) AppleWebKit/537.36 (KHTML, like Gecko) Chrome/138.0.0.0 Safari/537.36" version="28.0.6" pages="2">
  <diagram name="Page-1" id="J4E_2DDaPVeCCUN1lOCa">
    <mxGraphModel dx="977" dy="820" grid="1" gridSize="10" guides="1" tooltips="1" connect="1" arrows="1" fold="1" page="1" pageScale="1" pageWidth="850" pageHeight="1100" math="0" shadow="0">
      <root>
        <mxCell id="0" />
        <mxCell id="1" parent="0" />
        <mxCell id="SB-c7dVA0ZSMmLiqyfhz-1" value="&lt;font style=&quot;font-size: 20px;&quot;&gt;Purpose&lt;/font&gt;" style="rounded=0;whiteSpace=wrap;html=1;fillColor=none;" vertex="1" parent="1">
          <mxGeometry x="180" y="370" width="120" height="60" as="geometry" />
        </mxCell>
        <mxCell id="SB-c7dVA0ZSMmLiqyfhz-2" value="&lt;font style=&quot;font-size: 20px;&quot;&gt;Expectations&lt;/font&gt;" style="rounded=0;whiteSpace=wrap;html=1;fillColor=none;" vertex="1" parent="1">
          <mxGeometry x="300" y="370" width="150" height="60" as="geometry" />
        </mxCell>
        <mxCell id="SB-c7dVA0ZSMmLiqyfhz-3" value="&lt;font style=&quot;font-size: 20px;&quot;&gt;Feedback&lt;/font&gt;" style="rounded=0;whiteSpace=wrap;html=1;fillColor=none;" vertex="1" parent="1">
          <mxGeometry x="450" y="370" width="120" height="60" as="geometry" />
        </mxCell>
        <mxCell id="SB-c7dVA0ZSMmLiqyfhz-4" value="&lt;span style=&quot;font-size: 20px;&quot;&gt;Psychological Safety&lt;/span&gt;" style="rounded=0;whiteSpace=wrap;html=1;fillColor=none;" vertex="1" parent="1">
          <mxGeometry x="180" y="430" width="390" height="60" as="geometry" />
        </mxCell>
        <mxCell id="SB-c7dVA0ZSMmLiqyfhz-5" value="&lt;font style=&quot;font-size: 20px;&quot;&gt;Trust&lt;/font&gt;" style="rounded=0;whiteSpace=wrap;html=1;fillColor=none;" vertex="1" parent="1">
          <mxGeometry x="180" y="490" width="390" height="60" as="geometry" />
        </mxCell>
      </root>
    </mxGraphModel>
  </diagram>
  <diagram id="b6VxJc_dyy7kFxfi6wbC" name="Page-2">
    <mxGraphModel dx="977" dy="820" grid="1" gridSize="10" guides="1" tooltips="1" connect="1" arrows="1" fold="1" page="1" pageScale="1" pageWidth="850" pageHeight="1100" math="0" shadow="0">
      <root>
        <mxCell id="0" />
        <mxCell id="1" parent="0" />
      </root>
    </mxGraphModel>
  </diagram>
</mxfile>
